<?xml version="1.0" standalone="no"?>
<!DOCTYPE svg PUBLIC "-//W3C//DTD SVG 1.1//EN" "http://www.w3.org/Graphics/SVG/1.1/DTD/svg11.dtd" >
<svg xmlns="http://www.w3.org/2000/svg" xmlns:xlink="http://www.w3.org/1999/xlink" version="1.1">
<metadata></metadata>
<defs>
<font id="rbno2.1amedium" horiz-adv-x="862" >
<font-face units-per-em="2048" ascent="1536" descent="-512" />
<missing-glyph horiz-adv-x="307" />
<glyph unicode="&#xfb01;" horiz-adv-x="817" d="M20 993v164h84v82q0 72 11 114.5t41.5 68t75.5 34t122 8.5h158v-174h-158q-33 0 -44 -16.5t-11 -48.5v-68h442v-1157h-194v993h-248v-993h-195v993h-84z" />
<glyph unicode="&#xfb02;" horiz-adv-x="815" d="M20 993v164h84v82q0 72 11 114.5t41.5 68t75.5 34t122 8.5h387v-1464h-194v1311h-193q-32 0 -43.5 -17t-11.5 -49v-88h131v-164h-131v-993h-195v993h-84z" />
<glyph horiz-adv-x="0" />
<glyph horiz-adv-x="682" />
<glyph unicode=" "  horiz-adv-x="307" />
<glyph unicode="&#x09;" horiz-adv-x="307" />
<glyph unicode="&#xa0;" horiz-adv-x="307" />
<glyph unicode="!" horiz-adv-x="391" d="M98 1053v381h195v-381l-47 -625h-101zM109 0v260h174v-260h-174z" />
<glyph unicode="&#x22;" horiz-adv-x="612" d="M80 1434h174v-228l-51 -356h-119zM358 1434h174v-228l-51 -356h-119z" />
<glyph unicode="#" horiz-adv-x="1181" d="M47 322l23 141h170l71 481h-164l23 143h166l55 347h152l-54 -347h289l53 347h154l-55 -347h200l-24 -143h-201l-74 -481h199l-24 -141h-199l-49 -322h-152l49 322h-290l-48 -322h-151l49 322h-168zM391 463h289l72 481h-289z" />
<glyph unicode="$" horiz-adv-x="823" d="M61 295v188h205v-202q0 -73 28 -93t93 -20h51q64 0 92.5 20t28.5 93v211q0 22 -2.5 38t-10 29t-13.5 21t-21.5 17t-23.5 13t-30.5 13t-33.5 14l-150 51q-44 18 -68.5 29.5t-56.5 34t-48 48.5t-28 68t-12 97v174q0 117 27.5 181t87 90.5t168.5 29.5v141h166v-145 q139 -9 192.5 -72t53.5 -225v-187h-205v203q0 39 -7.5 62t-26 33.5t-36.5 13t-51 2.5h-43q-32 0 -50 -2.5t-36.5 -13t-26.5 -34t-8 -61.5v-139q0 -39 6 -63.5t28.5 -42.5t39 -26t63.5 -26q3 -1 5 -2t5 -2t5 -2l141 -49q41 -15 67 -27.5t55 -35t45.5 -50t27 -70.5t10.5 -98 v-227q0 -112 -25 -175t-78.5 -91t-150.5 -33v-172h-166v170q-110 3 -169 29.5t-86.5 90t-27.5 181.5z" />
<glyph unicode="%" horiz-adv-x="1292" d="M78 834v415q0 103 42 146t146 43h78q104 0 146 -43t42 -146v-415q0 -104 -41.5 -147.5t-146.5 -43.5h-78q-105 0 -146.5 43.5t-41.5 147.5zM201 819q0 -43 17.5 -59.5t53.5 -16.5h66q36 0 54 16.5t18 59.5v445q0 43 -17.5 59t-54.5 16h-66q-36 0 -53.5 -16t-17.5 -59 v-445zM303 0l553 1434h123l-553 -1434h-123zM760 186v416q0 103 42 146t146 43h78q104 0 146 -43t42 -146v-416q0 -104 -42 -148t-146 -44h-78q-104 0 -146 44t-42 148zM883 172q0 -43 17.5 -59.5t53.5 -16.5h66q36 0 54 16.5t18 59.5v444q0 43 -18 59.5t-54 16.5h-66 q-36 0 -53.5 -16.5t-17.5 -59.5v-444z" />
<glyph unicode="&#x26;" horiz-adv-x="983" d="M80 291v209q0 219 174 235q-129 19 -129 230v118q0 91 14.5 146t53.5 87.5t96 44t151 11.5h209v-174h-209q-53 0 -81.5 -24.5t-28.5 -90.5v-149q0 -65 27 -89t79 -26h531v-133l-205 -41v-645h-367q-66 0 -107 3t-80.5 13.5t-60.5 29t-38 51.5t-23 80t-6 114zM285 270 q0 -66 26 -85t84 -19h176v467h-172q-54 0 -84 -24.5t-30 -90.5v-248z" />
<glyph unicode="'" horiz-adv-x="333" d="M80 1434h174v-228l-51 -356h-119z" />
<glyph unicode="(" horiz-adv-x="425" d="M80 53v1147q0 126 63 201q25 32 69 72.5t75 62.5l78 -76q-4 -7 -41 -53t-45 -64q-15 -31 -20 -58.5t-5 -84.5v-1147q0 -58 5 -85.5t20 -59.5q8 -18 45.5 -64t42.5 -53l-80 -76q-31 22 -75 62.5t-69 72.5q-63 75 -63 203z" />
<glyph unicode=")" horiz-adv-x="425" d="M59 -209q5 7 42.5 53t45.5 64q15 32 20 59.5t5 85.5v1147q0 57 -5 84.5t-20 58.5q-8 18 -45 64t-41 53l78 76q31 -22 75 -62.5t69 -72.5q63 -75 63 -201v-1147q0 -128 -63 -203q-25 -32 -69 -72.5t-75 -62.5z" />
<glyph unicode="*" horiz-adv-x="684" d="M45 989l96 60l152 57l18 -33l-116 -112l-99 -62zM45 1239l51 90l99 -61l116 -115l-18 -33l-152 58zM291 793v114l33 160h36l33 -160v-114h-102zM291 1319v115h102v-115l-33 -160h-36zM373 1073l18 33l152 -57l96 -60l-51 -90l-99 62zM373 1153l116 115l99 61l51 -90 l-96 -61l-152 -58z" />
<glyph unicode="+" horiz-adv-x="686" d="M43 668v135h231v231h136v-231h235v-135h-235v-236h-136v236h-231z" />
<glyph unicode="," horiz-adv-x="333" d="M78 0v250h178v-199q0 -88 -24.5 -142.5t-88.5 -135.5l-59 43q41 66 51 97.5t10 86.5h-67z" />
<glyph unicode="-" horiz-adv-x="585" d="M43 535v159h500v-159h-500z" />
<glyph unicode="." horiz-adv-x="372" d="M98 0v250h176v-250h-176z" />
<glyph unicode="/" horiz-adv-x="518" d="M43 -74l287 1587h125l-289 -1587h-123z" />
<glyph unicode="0" d="M72 315v803q0 186 70 254t255 68h68q185 0 255.5 -68t70.5 -254v-803q0 -184 -70.5 -252.5t-255.5 -68.5h-68q-184 0 -254.5 69t-70.5 252zM276 283q0 -73 29 -94t92 -21h68q63 0 92 21t29 94v868q0 73 -29 94t-92 21h-68q-63 0 -92 -21t-29 -94v-868z" />
<glyph unicode="1" horiz-adv-x="669" d="M-8 1315l276 119h197v-1268h199v-166h-603v166h209v1073l-227 -59z" />
<glyph unicode="2" horiz-adv-x="765" d="M57 0v360q0 107 36.5 172t107.5 125l186 164q75 59 107 116.5t32 135.5v88q0 73 -27.5 93t-92.5 20h-35q-64 0 -92.5 -20t-28.5 -93v-170h-189v148q0 93 18 152.5t59.5 92t96.5 44.5t142 12h51q161 0 223 -67t62 -234v-95q0 -61 -11 -109t-36 -86.5t-49 -63.5t-64 -60 l-172 -152q-11 -10 -33 -28.5t-30 -26t-23 -23t-20.5 -26.5t-12.5 -28t-9.5 -36.5t-2.5 -44.5v-194h471v-166h-664z" />
<glyph unicode="3" horiz-adv-x="778" d="M51 295v113h185v-134q0 -73 28 -93.5t92 -20.5h62q63 0 92 20.5t29 93.5v273q0 59 -22.5 80.5t-67.5 23.5h-236v166h236q44 0 67 22t23 81v239q0 73 -29 94t-92 21h-66q-64 0 -92.5 -21t-28.5 -94v-123h-180v103q0 96 15 153.5t54.5 91t97.5 45t155 11.5h55 q87 0 140.5 -11.5t92.5 -44.5t55.5 -92t16.5 -153v-172q0 -116 -29.5 -166.5t-93.5 -61.5q65 -9 94 -57t29 -166v-221q0 -69 -9 -119t-29 -83t-43.5 -53t-61.5 -30t-73 -13t-89 -3h-55q-97 0 -155 11.5t-97.5 45t-54.5 91t-15 153.5z" />
<glyph unicode="4" horiz-adv-x="901" d="M2 311v146l358 977h330v-957h187v-166h-187v-311h-194v311h-494zM209 477h287v789h-19z" />
<glyph unicode="5" horiz-adv-x="772" d="M51 295v139h189v-180q0 -16 1.5 -28.5t3.5 -22t7 -16.5t8.5 -12t12 -8t13 -4.5t16 -2t17.5 -0.5h20h21h56h20.5h19.5t17.5 0.5t16.5 2t13.5 4.5t12 8t8.5 12t7.5 16.5t4 22t1.5 28.5v354q0 62 -25.5 83.5t-75.5 21.5h-358l10 721h598v-174h-410v-367h211q50 0 84 -5 t67 -20.5t51.5 -43.5t30 -75.5t11.5 -115.5v-338q0 -60 -5.5 -104.5t-15.5 -77t-30.5 -54t-42.5 -35t-60.5 -20t-75.5 -8.5t-95 -2h-84q-86 0 -135 11t-81.5 45.5t-43.5 91t-11 153.5z" />
<glyph unicode="6" horiz-adv-x="780" d="M51 295v833q0 96 16 155.5t56 95t99.5 48.5t154.5 13h45q76 0 125.5 -12t88.5 -44t57 -92t18 -153v-127h-189v147q0 40 -7.5 64.5t-25.5 35t-34.5 13t-48.5 2.5h-44q-61 0 -88.5 -21t-27.5 -94v-352q50 31 125 31h86q59 0 95.5 -3.5t72 -15t55 -32.5t35 -57.5t21 -88 t5.5 -125.5v-221q0 -64 -6 -110t-21.5 -80t-38 -55t-59.5 -34t-81.5 -17.5t-108.5 -4.5h-53q-183 0 -252.5 66t-69.5 235zM246 274q0 -38 8.5 -62t26.5 -35t36.5 -14t49.5 -3h59q31 0 49.5 3t36.5 14t26.5 35t8.5 62v273q0 76 -30 100.5t-91 24.5h-86q-46 0 -70 -16t-24 -66 v-316z" />
<glyph unicode="7" horiz-adv-x="706" d="M31 1260v174h643v-187l-357 -1247h-200l356 1227v33h-442z" />
<glyph unicode="8" horiz-adv-x="798" d="M39 285v227q0 133 37.5 184t128.5 60q-71 13 -104.5 61.5t-34.5 159.5v158q0 77 10 128.5t31.5 87t60.5 54.5t89.5 27t127.5 8h33q97 0 155.5 -12t98.5 -46t55.5 -92.5t15.5 -154.5v-138q0 -124 -33.5 -176.5t-111.5 -64.5q88 -9 125 -60.5t37 -183.5v-227 q0 -94 -18.5 -151.5t-64.5 -88.5t-105 -41t-158 -10h-29q-79 0 -130.5 6t-96 23.5t-68.5 50t-37.5 84t-13.5 127.5zM233 270q0 -30 7.5 -50t16.5 -30t28.5 -15.5t32.5 -6t40 -0.5h7h69h30t26 1.5t26 5t19 11t17 18t8.5 27.5t4.5 39v279q0 73 -28.5 93t-92.5 20h-94 q-31 -1 -48.5 -4t-35.5 -14t-25.5 -34t-7.5 -61v-279zM260 942q0 -29 5.5 -49t13 -30.5t24 -16t29 -6.5t37.5 -2h67q33 1 47.5 3t33 11t25.5 31t7 59v215q0 39 -7.5 62t-26.5 32.5t-36 12t-51 2.5h-47q-33 0 -50 -2.5t-36 -12t-27 -33t-8 -61.5v-215z" />
<glyph unicode="9" horiz-adv-x="790" d="M39 883v256q0 95 15.5 153.5t56.5 91.5t99 44.5t155 11.5h43q183 0 252 -65.5t69 -235.5v-834q0 -77 -9.5 -129t-30.5 -89t-59 -56.5t-89 -28t-127 -8.5h-45q-96 0 -152 11t-93.5 45t-51 91t-13.5 154v102h185v-112q0 -74 30 -99.5t91 -25.5h49q62 0 91.5 25.5t29.5 99.5 v305q-50 -29 -125 -29h-76q-59 0 -96.5 3.5t-74 15t-57.5 32.5t-37.5 57t-23 88t-6.5 126zM233 842q0 -73 29.5 -94t91.5 -21h86q50 0 72.5 19t22.5 81v338q0 38 -8 61.5t-27 33t-36.5 12t-49.5 2.5h-60q-32 0 -49.5 -2.5t-36.5 -12t-27 -33t-8 -61.5v-323z" />
<glyph unicode=":" horiz-adv-x="333" d="M80 0v250h176v-250h-176zM80 907v250h176v-250h-176z" />
<glyph unicode=";" horiz-adv-x="333" d="M78 0v250h178v-199q0 -88 -24.5 -142.5t-88.5 -135.5l-59 43q41 66 51 97.5t10 86.5h-67zM80 907v250h176v-250h-176z" />
<glyph unicode="&#x3c;" horiz-adv-x="665" d="M43 670v141l580 287v-162l-392 -197l392 -194v-162z" />
<glyph unicode="=" horiz-adv-x="686" d="M43 500v129h602v-129h-602zM43 827v129h602v-129h-602z" />
<glyph unicode="&#x3e;" horiz-adv-x="665" d="M43 383v162l391 194l-391 197v162l580 -287v-141z" />
<glyph unicode="?" horiz-adv-x="800" d="M61 971v168q0 93 18 152.5t59.5 92t96.5 44.5t142 12h51q86 0 141.5 -12t96.5 -44.5t59 -92t18 -152.5v-125q0 -20 -2.5 -38t-4.5 -32.5t-10 -30t-11.5 -25t-16 -24.5t-17.5 -21.5t-21.5 -21.5l-22 -20t-26.5 -22.5l-27 -22.5q-25 -21 -57.5 -47.5t-44 -36.5t-26.5 -25 t-18.5 -27.5t-6.5 -30t-3 -44.5v-117h-160v190q0 25 5.5 45.5t21.5 41.5t26 32t38 36.5t38 35.5q14 13 44.5 42t39.5 39t27.5 32t24 36.5t11 37t5.5 48.5v121q0 39 -7.5 62t-26.5 32.5t-36 12t-51 2.5h-51q-63 0 -92 -22t-29 -95v-186h-195zM258 0v260h174v-260h-174z" />
<glyph unicode="@" horiz-adv-x="1101" d="M59 152v835q0 166 63.5 227.5t217.5 61.5h422q155 0 217.5 -61.5t62.5 -227.5v-754q0 -99 -35.5 -132t-111.5 -33q-109 0 -147.5 8t-81.5 43q-32 -25 -58 -35t-80 -10h-39q-225 0 -225 205v206q0 109 51.5 157t153.5 48h186v154q0 33 -6 52.5t-20 28.5t-27 11t-37 2h-28 q-26 0 -38.5 -1.5t-27.5 -9t-21 -26t-6 -49.5v-94h-153v82q0 67 10 108.5t37 71.5t74.5 42t124.5 13h30q78 0 127 -12t77.5 -41.5t39 -71.5t10.5 -110v-607q0 -60 13 -81t61 -21q61 0 77.5 25t16.5 88v743q0 131 -48 187.5t-179 56.5h-422q-130 0 -178.5 -57t-48.5 -187 v-835q0 -130 48.5 -187t178.5 -57h555v-45h-555q-154 0 -217.5 61.5t-63.5 227.5zM432 305q0 -40 20.5 -63t57.5 -23h29q63 0 116 39v305h-145q-47 0 -62.5 -25.5t-15.5 -72.5v-160z" />
<glyph unicode="A" horiz-adv-x="901" d="M10 0l277 1434h327l277 -1434h-205l-61 289h-351l-59 -289h-205zM303 483h293l-135 789h-23z" />
<glyph unicode="B" horiz-adv-x="831" d="M76 0v1434h362q94 0 151 -11.5t96 -44t54 -87.5t15 -146v-180q0 -117 -30.5 -169t-94.5 -65q67 -11 99 -61t32 -170v-209q0 -67 -6 -114t-23 -80t-38 -51.5t-61 -29t-81 -13.5t-107 -3h-368zM281 174h163q56 0 83.5 19.5t27.5 85.5v262q0 64 -29 83t-88 19h-157v-469z M281 817h165q52 0 77.5 20.5t25.5 84.5v233q0 65 -27 85t-84 20h-157v-443z" />
<glyph unicode="C" horiz-adv-x="835" d="M72 295v844q0 95 15.5 153t56 91.5t99 45t154.5 11.5h62q97 0 155.5 -11.5t98.5 -45.5t55.5 -91.5t15.5 -152.5v-260h-204v272q0 73 -28.5 94t-92.5 21h-62q-63 0 -92 -21t-29 -94v-868q0 -73 29 -94t92 -21h62q64 0 92.5 21t28.5 94v313h204v-301q0 -94 -15.5 -151.5 t-55.5 -91.5t-98.5 -46t-155.5 -12h-62q-96 0 -154.5 12t-99 45.5t-56 91.5t-15.5 152z" />
<glyph unicode="D" horiz-adv-x="839" d="M76 0v1434h381q94 0 151 -11.5t95.5 -44.5t53.5 -88t15 -145v-854q0 -90 -15 -145.5t-53.5 -88.5t-95.5 -45t-151 -12h-381zM281 174h176q57 0 83.5 20.5t26.5 86.5v880q0 64 -25.5 81.5t-84.5 17.5h-174z" />
<glyph unicode="E" horiz-adv-x="720" d="M80 0v1434h596v-174h-391v-439h360v-174h-360v-473h391v-174h-596z" />
<glyph unicode="F" horiz-adv-x="690" d="M80 0v1434h586v-174h-381v-463h350v-174h-350v-623h-205z" />
<glyph unicode="G" horiz-adv-x="843" d="M72 295v844q0 95 15.5 153t56 91.5t99 45t154.5 11.5h58q96 0 154.5 -11.5t99 -45t56 -91.5t15.5 -153v-168h-205v180q0 73 -29 94t-91 21h-58q-62 0 -91.5 -21t-29.5 -94v-879q0 -38 7.5 -60.5t27.5 -31.5t35 -10.5t51 -1.5h58h30t25 2t23 5.5t16.5 11t14.5 18.5t7.5 28 t3.5 39v310h-157v174h362v-461q0 -94 -15.5 -152t-56 -91.5t-99 -45.5t-154.5 -12h-58q-96 0 -154.5 12t-99 45.5t-56 91.5t-15.5 152z" />
<glyph unicode="H" horiz-adv-x="866" d="M80 0v1434h205v-613h299v613h204v-1434h-204v627h-299v-627h-205z" />
<glyph unicode="I" horiz-adv-x="364" d="M80 0v1434h205v-1434h-205z" />
<glyph unicode="J" horiz-adv-x="546" d="M14 0v168h144q56 0 83 19t27 83v1166h205v-1112q0 -77 -6.5 -131t-21.5 -92.5t-39.5 -59.5t-59.5 -33.5t-82 -13.5h-49.5h-56.5z" />
<glyph unicode="K" horiz-adv-x="851" d="M80 0v1434h205v-639h129l190 639h215l-225 -721l246 -713h-226l-188 600h-141v-600h-205z" />
<glyph unicode="L" horiz-adv-x="661" d="M80 0v1434h205v-1260h360v-174h-565z" />
<glyph unicode="M" horiz-adv-x="1136" d="M80 0v1434h299l184 -1026h8l185 1026h301v-1434h-211l10 981h-2l-184 -981h-201l-186 979h-4l10 -979h-209z" />
<glyph unicode="N" horiz-adv-x="882" d="M80 0v1434h217l305 -920h2v920h201v-1434h-223l-287 891h-10v-891h-205z" />
<glyph unicode="O" d="M72 295v844q0 95 15.5 153t56 91.5t99 45t154.5 11.5h68q96 0 154.5 -11.5t99 -45t56.5 -91.5t16 -153v-844q0 -94 -16 -152t-56.5 -91.5t-99 -45.5t-154.5 -12h-68q-96 0 -154.5 12t-98.5 46t-56 92t-16 151zM276 283q0 -73 30.5 -94t94.5 -21h60q64 0 94.5 21t30.5 94 v868q0 73 -30.5 94t-94.5 21h-60q-64 0 -94.5 -21t-30.5 -94v-868z" />
<glyph unicode="P" horiz-adv-x="790" d="M76 0v1434h377q91 0 146.5 -11.5t92.5 -43.5t51.5 -85t14.5 -139v-389q0 -87 -14 -140.5t-51.5 -85t-93 -42.5t-146.5 -11h-172v-487h-205zM281 662h163q26 0 42.5 2.5t33.5 11t25 28.5t8 52v409q0 60 -27.5 77.5t-81.5 17.5h-163v-598z" />
<glyph unicode="Q" d="M72 295v844q0 95 15.5 153t56 91.5t99 45t154.5 11.5h68q96 0 154.5 -11.5t99 -45t56.5 -91.5t16 -153v-844q0 -114 -25.5 -176.5t-83.5 -91.5l82 -197h-154l-98 166q-14 -2 -47 -2h-68q-96 0 -154.5 12t-98.5 46t-56 92t-16 151zM276 283q0 -73 30.5 -94t94.5 -21h60 q64 0 94.5 21t30.5 94v868q0 73 -30.5 94t-94.5 21h-60q-64 0 -94.5 -21t-30.5 -94v-868z" />
<glyph unicode="R" horiz-adv-x="811" d="M76 0v1434h387q91 0 146.5 -11t93 -42.5t51.5 -85t14 -140.5v-242q0 -203 -129 -223q67 -14 98 -67t31 -174v-449h-205v479q0 63 -27.5 88t-76.5 27h-178v-594h-205zM281 768h182q26 0 41 2.5t30.5 11.5t22 28.5t6.5 51.5v307q0 32 -7.5 51.5t-24.5 27.5t-32 10t-42 2 h-176v-492z" />
<glyph unicode="S" horiz-adv-x="823" d="M61 295v188h205v-202q0 -73 28 -93t93 -20h51q64 0 92.5 20t28.5 93v211q0 22 -2.5 38t-10 29t-13.5 21t-21.5 17t-23.5 13t-30.5 13t-33.5 14l-150 51q-44 18 -68.5 29.5t-56.5 34t-48 48.5t-28 68t-12 97v174q0 95 16 153t56.5 91.5t99 45t154.5 11.5h43 q97 0 155.5 -11.5t99 -45.5t56 -91.5t15.5 -152.5v-187h-205v203q0 39 -7.5 62t-26 33.5t-36.5 13t-51 2.5h-43q-32 0 -50 -2.5t-36.5 -13t-26.5 -34t-8 -61.5v-139q0 -39 6 -63.5t28.5 -42.5t39 -26t63.5 -26q3 -1 5 -2t5 -2t5 -2l141 -49q41 -15 67 -27.5t55 -35t45.5 -50 t27 -70.5t10.5 -98v-227q0 -94 -16 -152t-56.5 -91.5t-99 -45.5t-154.5 -12h-51q-97 0 -155.5 12t-99 46t-56 91.5t-15.5 151.5z" />
<glyph unicode="T" horiz-adv-x="770" d="M12 1260v174h746v-174h-271v-1260h-204v1260h-271z" />
<glyph unicode="U" d="M72 295v1139h204v-1145q0 -76 21.5 -98.5t79.5 -22.5h108q58 0 79.5 22.5t21.5 98.5v1145h205v-1139q0 -94 -16 -152t-56.5 -91.5t-99 -45.5t-154.5 -12h-68q-96 0 -154.5 12t-99 45.5t-56 91.5t-15.5 152z" />
<glyph unicode="V" horiz-adv-x="935" d="M23 1434h204l222 -1211h36l224 1211h204l-266 -1434h-358z" />
<glyph unicode="W" horiz-adv-x="1241" d="M18 1434h211l127 -1176h9l124 1176h265l123 -1176h8l129 1176h211l-164 -1434h-359l-75 961h-13l-73 -961h-359z" />
<glyph unicode="X" horiz-adv-x="804" d="M14 0l258 725l-247 709h204l172 -523l174 523h205l-248 -709l259 -725h-205l-185 543l-182 -543h-205z" />
<glyph unicode="Y" horiz-adv-x="843" d="M14 1434h205l201 -633l203 633h206l-305 -873v-561h-205v561z" />
<glyph unicode="Z" horiz-adv-x="720" d="M41 0v176l446 1081h-432v177h625v-174l-426 -1086h426v-174h-639z" />
<glyph unicode="[" horiz-adv-x="532" d="M84 -184v1689h430v-147h-256v-1395h256v-147h-430z" />
<glyph unicode="\" horiz-adv-x="518" d="M63 1513h125l287 -1587h-123z" />
<glyph unicode="]" horiz-adv-x="532" d="M18 -37h256v1395h-256v147h431v-1689h-431v147z" />
<glyph unicode="^" horiz-adv-x="870" d="M109 956l256 478h141l256 -478h-152l-174 338l-176 -338h-151z" />
<glyph unicode="_" horiz-adv-x="866" d="M-8 -88h882v-135h-882v135z" />
<glyph unicode="`" horiz-adv-x="1024" d="M340 1425h199l82 -188h-132z" />
<glyph unicode="a" horiz-adv-x="774" d="M61 225v279q0 122 62 175.5t180 53.5h203v170q0 34 -6 54.5t-21 29t-28 10.5t-39 2h-37q-27 0 -39 -1.5t-27.5 -9.5t-21.5 -27t-6 -52v-96h-181v88q0 76 11 122t41.5 79.5t84.5 47t142 13.5h37q116 0 177.5 -27t84 -81t22.5 -154v-891q-218 -16 -335 -16h-62 q-118 0 -180 54t-62 177zM256 256q0 -90 74 -90h176v420h-176q-74 0 -74 -84v-246z" />
<glyph unicode="b" horiz-adv-x="796" d="M74 0v1475h194v-318h215q119 0 180.5 -50.5t61.5 -172.5v-709q0 -123 -62 -177t-180 -54h-63q-101 0 -187.5 1.5t-122.5 2.5zM268 166h181q39 0 60 23.5t21 66.5v647q0 42 -21 66t-60 24h-181v-827z" />
<glyph unicode="c" horiz-adv-x="768" d="M72 256v645q0 100 23.5 154t86 81t180.5 27h64q118 0 181 -27t86.5 -81t23.5 -154v-194h-195v192q0 60 -23.5 80t-72.5 20h-64q-49 0 -72.5 -20t-23.5 -80v-641q0 -59 23.5 -79.5t72.5 -20.5h64q49 0 72.5 20.5t23.5 79.5v213h195v-215q0 -74 -12 -121t-45 -80t-89 -47 t-145 -14h-64q-117 0 -180.5 27.5t-86.5 81.5t-23 153z" />
<glyph unicode="d" horiz-adv-x="796" d="M72 225v709q0 122 61 172.5t180 50.5h215v318h195v-1475q-211 -6 -344 -6h-66q-118 0 -179.5 54t-61.5 177zM266 256q0 -43 21 -66.5t61 -23.5h180v827h-180q-39 0 -60.5 -24t-21.5 -66v-647z" />
<glyph unicode="e" horiz-adv-x="784" d="M72 256v645q0 100 23.5 154t86 81t180.5 27h62q116 0 179.5 -27t87.5 -81.5t24 -153.5v-401l-449 -4v-238q0 -60 23.5 -80t72.5 -20h72q49 0 72.5 20t23.5 80v107h185v-109q0 -74 -12 -121t-45 -80t-89 -47t-145 -14h-62q-117 0 -180.5 27.5t-86.5 81.5t-23 153zM266 662 h254v237q0 59 -23.5 79.5t-72.5 20.5h-62q-49 0 -72.5 -20.5t-23.5 -79.5v-237z" />
<glyph unicode="f" horiz-adv-x="473" d="M20 993v164h84v72q0 72 11 114.5t41.5 68t75.5 34t122 8.5q18 0 46.5 -2.5t47.5 -5.5l19 -2v-154h-113q-33 0 -44 -16.5t-11 -48.5v-68h162v-164h-162v-993h-195v993h-84z" />
<glyph unicode="g" horiz-adv-x="796" d="M72 338v575q0 123 72 186.5t190 63.5h47l342 -6v-1157q0 -84 -11.5 -133t-46 -79t-87.5 -40t-146 -10h-57q-88 0 -142.5 14.5t-85.5 51.5t-42 89t-11 138v30h180v-71q0 -55 20 -71.5t66 -16.5h80q49 0 68.5 18t19.5 78v111h-215q-118 0 -179.5 53t-61.5 176zM266 369 q0 -43 21 -66.5t61 -23.5h180v714h-180q-39 0 -60.5 -24t-21.5 -66v-534z" />
<glyph unicode="h" horiz-adv-x="796" d="M74 0v1475h194v-318h213q119 0 180.5 -50.5t61.5 -172.5v-934h-195v903q0 42 -21.5 66t-60.5 24h-178v-993h-194z" />
<glyph unicode="i" horiz-adv-x="344" d="M72 1260v184h200v-184h-200zM76 0v1157h194v-1157h-194z" />
<glyph unicode="j" horiz-adv-x="342" d="M-43 -143q62 76 78 104q39 70 39 193v1003h194v-1024q0 -246 -207 -377zM72 1260v184h200v-184h-200z" />
<glyph unicode="k" horiz-adv-x="786" d="M74 0v1475h194v-762h129l168 444h197l-203 -536l217 -621h-196l-181 524h-131v-524h-194z" />
<glyph unicode="l" horiz-adv-x="342" d="M74 0v1475h194v-1475h-194z" />
<glyph unicode="m" horiz-adv-x="1228" d="M74 0v1157l786 6h55q118 0 180 -53.5t62 -175.5v-934h-194v903q0 42 -21.5 66t-60.5 24h-168v-993h-195v944q0 37 -5 43t-36 6h-209v-993h-194z" />
<glyph unicode="n" horiz-adv-x="796" d="M74 0v1157q194 6 344 6h63q118 0 180 -53.5t62 -175.5v-934h-195v903q0 42 -21.5 66t-60.5 24h-178v-993h-194z" />
<glyph unicode="o" horiz-adv-x="792" d="M72 256v645q0 100 23.5 154t86 81t180.5 27h70q116 0 179.5 -27t87.5 -81.5t24 -153.5v-645q0 -146 -60.5 -204t-230.5 -58h-70q-117 0 -180.5 27.5t-86.5 81.5t-23 153zM266 258q0 -59 23.5 -79.5t72.5 -20.5h70q49 0 72.5 20.5t23.5 79.5l2 643q0 60 -23.5 80t-72.5 20 h-69q-50 0 -73.5 -20t-23.5 -80z" />
<glyph unicode="p" horiz-adv-x="796" d="M74 -246v1403q162 6 344 6h65q115 0 178.5 -62.5t63.5 -187.5v-688q0 -123 -62 -177t-180 -54h-63l-152 6v-246h-194zM268 166h181q39 0 60 23.5t21 66.5v647q0 42 -21 66t-60 24h-181v-827z" />
<glyph unicode="q" horiz-adv-x="796" d="M72 225v688q0 123 72 186.5t190 63.5h47l342 -6v-1403h-195v246q-106 -6 -149 -6h-66q-118 0 -179.5 54t-61.5 177zM266 256q0 -43 21 -66.5t61 -23.5h180v827h-180q-39 0 -60.5 -24t-21.5 -66v-647z" />
<glyph unicode="r" horiz-adv-x="559" d="M74 0v956q0 91 53.5 149t161.5 58h20q36 0 97 -3t104 -6l43 -3v-143q-144 -9 -203 -13q-52 -3 -66 -21t-16 -69v-905h-194z" />
<glyph unicode="s" horiz-adv-x="706" d="M47 258v107h195v-115q0 -58 22.5 -74t73.5 -16h31q49 0 72.5 19.5t23.5 78.5v141q0 18 -2.5 31.5t-10 25t-11.5 18t-19 15t-19 11t-24 11t-23 9.5l-135 55q-26 11 -34.5 14.5t-31 14t-30.5 17.5t-24.5 20.5t-23 27.5t-15.5 34t-12 44.5t-3 53.5v100q0 100 23.5 154 t86.5 81t181 27h20q88 0 142.5 -13.5t85.5 -47t42 -80t11 -121.5v-92h-184v102q0 58 -22.5 73t-74.5 15h-20q-52 0 -74 -15t-22 -73v-92q0 -12 2 -22t4 -17.5t9 -14.5t10.5 -11t15.5 -10.5t17.5 -9t23 -10.5t24.5 -11l137 -54q44 -17 70.5 -32t53 -40.5t38.5 -63.5t12 -91 v-166q0 -75 -12 -123t-44.5 -82.5t-89 -49.5t-144.5 -15h-31q-118 0 -181 27t-86.5 81t-23.5 154z" />
<glyph unicode="t" horiz-adv-x="487" d="M23 993v164h83v256h195v-256h162v-164h-162v-762q0 -32 11 -48.5t44 -16.5h123v-166l-123 -6h-28q-124 0 -170 41q-52 46 -52 186v772h-83z" />
<glyph unicode="u" horiz-adv-x="792" d="M70 225v932h194v-901q0 -43 21 -66.5t61 -23.5h178v991h195v-1157q-266 -6 -342 -6h-66q-118 0 -179.5 54t-61.5 177z" />
<glyph unicode="v" horiz-adv-x="770" d="M8 1157h205l166 -915h12l166 915h205l-225 -1157h-304z" />
<glyph unicode="w" horiz-adv-x="1114" d="M8 1157h205l113 -901h10l108 901h226l108 -901h8l115 901h205l-166 -1157h-307l-74 680h-6l-72 -680h-307z" />
<glyph unicode="x" horiz-adv-x="743" d="M20 0l199 592l-199 565h205l148 -426l147 426h205l-199 -565l199 -592h-205l-147 455l-148 -455h-205z" />
<glyph unicode="y" horiz-adv-x="763" d="M-6 1157h211l162 -964h16l172 964h195l-258 -1415h-187l49 268h-141z" />
<glyph unicode="z" horiz-adv-x="684" d="M29 0v166l405 819h-395v172h612v-172l-401 -813h405v-172h-626z" />
<glyph unicode="{" horiz-adv-x="485" d="M16 582v104q2 1 18.5 10t31.5 20t32.5 28.5t28 45t10.5 60.5v350q0 121 64 201q24 31 68 71.5t75 63.5l70 -55q-6 -10 -37.5 -55t-40.5 -62q-25 -54 -25 -164v-350q0 -135 -118 -217q118 -82 118 -215v-365q0 -112 25 -166q9 -16 40 -60t38 -56l-70 -56 q-29 21 -73.5 62.5t-69.5 72.5q-64 80 -64 203v365q0 16 -3 31t-7 27t-11.5 23.5t-13.5 20t-16 17t-15.5 13.5t-16.5 11.5t-15 8.5t-13 7z" />
<glyph unicode="|" horiz-adv-x="483" d="M166 -143v1699h153v-1699h-153z" />
<glyph unicode="}" horiz-adv-x="485" d="M70 -229q7 12 37.5 56t39.5 60q25 54 25 166v365q0 132 119 215q-119 83 -119 217v350q0 110 -25 164q-9 17 -40 62t-37 55l69 55q32 -23 76 -63.5t68 -71.5q63 -79 63 -201v-350q0 -33 10.5 -60.5t28 -45t32.5 -28.5t31.5 -20t18.5 -10v-104l-9 -5l-14 -7t-15 -8.5 t-16.5 -11.5t-15.5 -13.5t-16 -17t-13.5 -20t-11.5 -23.5t-7 -27t-3 -31v-365q0 -124 -63 -203q-25 -31 -69.5 -72t-74.5 -63z" />
<glyph unicode="~" horiz-adv-x="819" d="M178 645l2 207h111l239 -86l2 80h107l-2 -207h-109l-239 125l-2 -119h-109z" />
<glyph unicode="&#xa1;" horiz-adv-x="354" d="M80 0v381l47 625h100l47 -625v-381h-194zM90 1174v260h174v-260h-174z" />
<glyph unicode="&#xa2;" horiz-adv-x="727" d="M72 258v645q0 134 47.5 192.5t181.5 67.5v142h166v-142q146 -6 198 -64t52 -196v-194h-195v192q0 60 -23.5 80t-72.5 20h-64q-49 0 -72.5 -20t-23.5 -80v-641q0 -59 23.5 -79.5t72.5 -20.5h64q49 0 72.5 20.5t23.5 79.5v213h195v-215q0 -139 -52 -197.5t-198 -62.5v-156 h-166v156q-134 9 -181.5 67.5t-47.5 192.5z" />
<glyph unicode="&#xa3;" horiz-adv-x="851" d="M23 0v164h90v407h-90v164h90v383q0 186 70 254t255 68h31q97 0 155.5 -11.5t99 -45.5t56 -91.5t15.5 -152.5v-199h-185v217q0 73 -28.5 94t-92.5 21h-51q-63 0 -92 -21t-29 -94v-422h359v-164h-359v-407h504v-164h-798z" />
<glyph unicode="&#xa5;" horiz-adv-x="843" d="M14 1434h205l201 -633l203 633h206l-262 -750h189v-98h-224l-8 -25v-82h232v-98h-232v-381h-205v381h-237v98h237v82l-8 25h-229v98h194z" />
<glyph unicode="&#xa7;" horiz-adv-x="868" d="M49 668v168q0 94 76 151q-39 64 -39 174v8q0 80 23.5 135t70 84t101.5 40.5t131 11.5q75 0 149 -1.5t111 -2.5l37 -2v-140h-318q-63 0 -92 -20.5t-29 -93.5v-19q0 -19 3.5 -34.5t8.5 -26.5t15.5 -20t18.5 -14t24.5 -11t27 -8.5t31.5 -8t33 -8.5l176 -35 q107 -20 154.5 -69.5t48.5 -159.5v-172q0 -86 -80 -145q41 -59 41 -175v-10q0 -52 -8.5 -93t-22.5 -69t-38 -48t-48.5 -31.5t-61 -18t-69 -8.5t-78.5 -2l-327 6v139h327h32.5t29.5 2t29.5 6t23.5 12.5t20.5 20.5t11.5 31t5 43v20q0 25 -7.5 44t-15.5 30t-29.5 21t-32 13 t-43 10.5t-42.5 10.5l-176 35q-107 20 -155 70t-48 160zM207 709q0 -15 1 -25.5t1.5 -19.5t4.5 -16t5 -12t9 -9t11 -6.5t15 -6t18 -5t23.5 -5.5t26.5 -6l176 -41q28 -6 76.5 -22t60.5 -27q16 21 16 51v166q0 37 -5 57.5t-22.5 33t-37.5 18t-64 12.5l-166 35q-48 9 -76 17 t-37 13t-20 15q-16 -26 -16 -49v-168z" />
<glyph unicode="&#xa8;" horiz-adv-x="1024" d="M324 1253v172h131v-172h-131zM569 1253v172h131v-172h-131z" />
<glyph unicode="&#xa9;" horiz-adv-x="1073" d="M76 291v854q0 149 80.5 219t224.5 70h311q145 0 226 -70t81 -219v-854q0 -151 -81 -221t-226 -70h-311q-143 0 -224 71t-81 220zM113 291q0 -130 69 -194t199 -64h311q271 0 271 258v854q0 258 -271 258h-311q-268 0 -268 -258v-854zM268 432v559q0 145 49 201.5 t183 56.5h69q138 0 188 -52.5t50 -195.5v-178h-152v211q0 30 -6 48.5t-21 26t-28 9.5t-39 2h-49q-25 0 -35.5 -1.5t-27 -8.5t-23 -26t-6.5 -50v-639q0 -56 22 -74t70 -18h49q48 0 71 17t23 75v238h152v-211q0 -142 -50.5 -195t-187.5 -53h-69q-134 0 -183 57t-49 201z" />
<glyph unicode="&#xaa;" horiz-adv-x="522" d="M68 530v113h385v-113h-385zM72 877v176q0 78 37 107.5t110 29.5h117v90q0 38 -13 48.5t-42 10.5h-29q-29 0 -41 -10t-12 -47v-53h-111v53q0 84 35 120.5t127 37.5h33q103 0 137.5 -34t34.5 -124v-532q-75 -11 -179 -11h-36q-74 0 -121 32.5t-47 105.5zM190 895 q0 -51 46 -51h100v256h-100q-46 0 -46 -60v-145z" />
<glyph unicode="&#xab;" horiz-adv-x="626" d="M23 573v23l194 348h131l-160 -348v-23l160 -346h-131zM276 573v23l175 348h139l-150 -348v-23l150 -346h-139z" />
<glyph unicode="&#xad;" horiz-adv-x="585" d="M43 535v159h500v-159h-500z" />
<glyph unicode="&#xae;" horiz-adv-x="720" d="M76 817v416q0 116 51 158.5t160 42.5h147q109 0 161 -42.5t52 -158.5v-416q0 -117 -52 -160t-161 -43h-147q-109 0 -160 43t-51 160zM100 817q0 -102 44.5 -141t142.5 -39h147q101 0 145 38.5t44 141.5v416q0 104 -45 141t-144 37h-147q-97 0 -142 -37t-45 -141v-416z M227 756v542h152q73 0 101 -23t28 -93v-88q0 -49 -14.5 -68.5t-51.5 -24.5q37 -6 51.5 -26.5t14.5 -67.5v-151h-86v159q0 23 -10 37.5t-27 14.5h-72v-211h-86zM313 1040h72q37 0 37 41v101q0 43 -43 43h-66v-185z" />
<glyph unicode="&#xaf;" horiz-adv-x="1024" d="M301 1274v115h422v-115h-422z" />
<glyph unicode="&#xb0;" horiz-adv-x="524" d="M49 967v268q0 57 5 90t22.5 62t53.5 41t95 12h76q59 0 95 -12t53.5 -41t22.5 -62t5 -90v-268q0 -56 -5 -89t-22.5 -62t-53.5 -41.5t-95 -12.5h-76q-59 0 -95 12.5t-53.5 41.5t-22.5 62t-5 89zM168 946q0 -44 10.5 -60t50.5 -16h68q40 0 50.5 16t10.5 60v311 q0 43 -10.5 59.5t-50.5 16.5h-68q-40 0 -50.5 -16.5t-10.5 -59.5v-311z" />
<glyph unicode="&#xb1;" horiz-adv-x="686" d="M43 328v135h602v-135h-602zM43 809v135h231v232h136v-232h235v-135h-235v-236h-136v236h-231z" />
<glyph unicode="&#xb4;" horiz-adv-x="1024" d="M401 1237l84 188h199l-152 -188h-131z" />
<glyph unicode="&#xb6;" horiz-adv-x="890" d="M68 858v373q0 82 45.5 142.5t136.5 60.5h561v-1434h-119v1296h-176v-1296h-119v655h-147q-87 0 -134.5 61.5t-47.5 141.5z" />
<glyph unicode="&#xb7;" horiz-adv-x="360" d="M92 547v250h176v-250h-176z" />
<glyph unicode="&#xb8;" horiz-adv-x="1024" d="M377 -242l88 242h110l-51 -242h-147z" />
<glyph unicode="&#xba;" horiz-adv-x="538" d="M72 530v113h395v-113h-395zM72 905v367q0 90 37 129t137 39h47q102 0 138 -38.5t36 -129.5v-367q0 -89 -36.5 -127.5t-137.5 -38.5h-47q-100 0 -137 38.5t-37 127.5zM193 901q0 -34 13.5 -45.5t39.5 -11.5h47q28 0 41.5 11.5t13.5 45.5v375q0 36 -13 46.5t-42 10.5h-47 q-27 0 -40 -11t-13 -46v-375z" />
<glyph unicode="&#xbb;" horiz-adv-x="626" d="M37 227l149 346v23l-149 348h141l174 -348v-23l-174 -346h-141zM281 227l159 346v23l-159 348h129l194 -348v-23l-194 -346h-129z" />
<glyph unicode="&#xbf;" horiz-adv-x="729" d="M6 295v125q0 22 1.5 41t8.5 37t10 30.5t16 29t17.5 24t23.5 25t24 22t29.5 24.5t29.5 25q25 21 57.5 47.5t44 36.5t26.5 25t18.5 27.5t6.5 30t3 44.5v117h159v-191q0 -25 -5.5 -45.5t-21.5 -41t-26 -31.5t-37.5 -36t-38.5 -36t-44 -42t-40 -39.5t-26.5 -31.5t-24.5 -37 t-10.5 -37t-5.5 -49v-121q0 -39 7.5 -61.5t26.5 -32.5t36 -12t51 -2h51q63 0 92 21.5t29 94.5v187h194v-168q0 -93 -18 -152.5t-59 -92t-96.5 -44.5t-141.5 -12h-51q-87 0 -142 12t-96.5 44.5t-59.5 92t-18 152.5zM317 1174v260h175v-260h-175z" />
<glyph unicode="&#xc0;" horiz-adv-x="833" d="M-23 0l277 1434h328l276 -1434h-205l-61 289h-350l-60 -289h-205zM205 1702h198l82 -189h-131zM270 483h293l-135 789h-22z" />
<glyph unicode="&#xc1;" horiz-adv-x="833" d="M-23 0l277 1434h328l276 -1434h-205l-61 289h-350l-60 -289h-205zM270 483h293l-135 789h-22zM338 1513l84 189h199l-152 -189h-131z" />
<glyph unicode="&#xc2;" horiz-adv-x="833" d="M-23 0l277 1434h328l276 -1434h-205l-61 289h-350l-60 -289h-205zM190 1513l134 189h188l133 -189h-131l-96 107l-96 -107h-132zM270 483h293l-135 789h-22z" />
<glyph unicode="&#xc3;" horiz-adv-x="833" d="M-23 0l277 1434h328l276 -1434h-205l-61 289h-350l-60 -289h-205zM225 1528l4 172h90l199 -72l6 70h88l-4 -174h-90l-199 102l-6 -98h-88zM270 483h293l-135 789h-22z" />
<glyph unicode="&#xc4;" horiz-adv-x="833" d="M-23 0l277 1434h328l276 -1434h-205l-61 289h-350l-60 -289h-205zM229 1530v172h131v-172h-131zM270 483h293l-135 789h-22zM475 1530v172h131v-172h-131z" />
<glyph unicode="&#xc5;" horiz-adv-x="833" d="M-23 0l277 1434h328l276 -1434h-205l-61 289h-350l-60 -289h-205zM268 1608v28q0 71 26 98t103 27h39q79 0 104 -26.5t25 -98.5v-28q0 -72 -25 -98.5t-104 -26.5h-39q-77 0 -103 27t-26 98zM270 483h293l-135 789h-22zM338 1604q0 -38 11 -48t52 -10h31q42 0 54 10t12 48 v38q0 37 -11 46.5t-55 9.5h-31q-42 0 -52.5 -9.5t-10.5 -46.5v-38z" />
<glyph unicode="&#xc6;" horiz-adv-x="1288" d="M23 0l473 1434h747v-174h-391v-439h360v-176h-360v-469h391v-176h-596v309h-323l-99 -309h-202zM377 483h270v777h-31z" />
<glyph unicode="&#xc7;" horiz-adv-x="794" d="M72 295v844q0 95 15.5 153t56 91.5t99 45t154.5 11.5h62q97 0 155.5 -11.5t98.5 -45.5t55.5 -91.5t15.5 -152.5v-260h-204v272q0 73 -28.5 94t-92.5 21h-62q-63 0 -92 -21t-29 -94v-868q0 -73 29 -94t92 -21h62q64 0 92.5 21t28.5 94v313h204v-301q0 -91 -14.5 -148 t-51.5 -91t-91 -47t-142 -15l-49 -236h-147l86 236q-89 2 -144 15t-92 47t-52 91t-15 148z" />
<glyph unicode="&#xc8;" horiz-adv-x="720" d="M80 0v1434h596v-174h-391v-439h360v-174h-360v-473h391v-174h-596zM207 1702h199l81 -189h-131z" />
<glyph unicode="&#xc9;" horiz-adv-x="720" d="M80 0v1434h596v-174h-391v-439h360v-174h-360v-473h391v-174h-596zM276 1513l84 189h199l-151 -189h-132z" />
<glyph unicode="&#xca;" horiz-adv-x="720" d="M80 0v1434h596v-174h-391v-439h360v-174h-360v-473h391v-174h-596zM150 1513l133 189h188l133 -189h-131l-96 107l-96 -107h-131z" />
<glyph unicode="&#xcb;" horiz-adv-x="720" d="M80 0v1434h596v-174h-391v-439h360v-174h-360v-473h391v-174h-596zM199 1530v172h131v-172h-131zM444 1530v172h131v-172h-131z" />
<glyph unicode="&#xcc;" horiz-adv-x="364" d="M-25 1702h199l82 -189h-131zM80 0v1434h205v-1434h-205z" />
<glyph unicode="&#xcd;" horiz-adv-x="364" d="M80 0v1434h205v-1434h-205zM111 1513l84 189h198l-151 -189h-131z" />
<glyph unicode="&#xce;" horiz-adv-x="364" d="M-45 1513l133 189h188l134 -189h-131l-97 107l-96 -107h-131zM80 0v1434h205v-1434h-205z" />
<glyph unicode="&#xcf;" horiz-adv-x="364" d="M-6 1530v172h131v-172h-131zM80 0v1434h205v-1434h-205zM240 1530v172h131v-172h-131z" />
<glyph unicode="&#xd0;" horiz-adv-x="868" d="M4 659v144h100v631h381q94 0 151.5 -11.5t96 -44.5t53.5 -88t15 -145v-854q0 -90 -15 -145.5t-53.5 -88.5t-96 -45t-151.5 -12h-381v659h-100zM309 174h176q57 0 84 20.5t27 86.5v880q0 64 -26 81.5t-85 17.5h-174l-2 -457h121v-144h-121v-485z" />
<glyph unicode="&#xd1;" horiz-adv-x="882" d="M80 0v1434h217l305 -920h2v920h201v-1434h-223l-287 891h-10v-891h-205zM246 1528l4 172h90l199 -72l6 70h88l-4 -174h-90l-199 102l-6 -98h-88z" />
<glyph unicode="&#xd2;" d="M72 295v844q0 95 15.5 153t56 91.5t99 45t154.5 11.5h68q96 0 154.5 -11.5t99 -45t56.5 -91.5t16 -153v-844q0 -94 -16 -152t-56.5 -91.5t-99 -45.5t-154.5 -12h-68q-96 0 -154.5 12t-98.5 46t-56 92t-16 151zM231 1702h199l82 -189h-131zM276 283q0 -73 30.5 -94 t94.5 -21h60q64 0 94.5 21t30.5 94v868q0 73 -30.5 94t-94.5 21h-60q-64 0 -94.5 -21t-30.5 -94v-868z" />
<glyph unicode="&#xd3;" d="M72 295v844q0 95 15.5 153t56 91.5t99 45t154.5 11.5h68q96 0 154.5 -11.5t99 -45t56.5 -91.5t16 -153v-844q0 -94 -16 -152t-56.5 -91.5t-99 -45.5t-154.5 -12h-68q-96 0 -154.5 12t-98.5 46t-56 92t-16 151zM276 283q0 -73 30.5 -94t94.5 -21h60q64 0 94.5 21t30.5 94 v868q0 73 -30.5 94t-94.5 21h-60q-64 0 -94.5 -21t-30.5 -94v-868zM342 1513l84 189h199l-152 -189h-131z" />
<glyph unicode="&#xd4;" d="M72 295v844q0 95 15.5 153t56 91.5t99 45t154.5 11.5h68q96 0 154.5 -11.5t99 -45t56.5 -91.5t16 -153v-844q0 -94 -16 -152t-56.5 -91.5t-99 -45.5t-154.5 -12h-68q-96 0 -154.5 12t-98.5 46t-56 92t-16 151zM205 1513l133 189h188l133 -189h-131l-96 107l-96 -107h-131 zM276 283q0 -73 30.5 -94t94.5 -21h60q64 0 94.5 21t30.5 94v868q0 73 -30.5 94t-94.5 21h-60q-64 0 -94.5 -21t-30.5 -94v-868z" />
<glyph unicode="&#xd5;" d="M72 295v844q0 95 15.5 153t56 91.5t99 45t154.5 11.5h68q96 0 154.5 -11.5t99 -45t56.5 -91.5t16 -153v-844q0 -94 -16 -152t-56.5 -91.5t-99 -45.5t-154.5 -12h-68q-96 0 -154.5 12t-98.5 46t-56 92t-16 151zM238 1528l4 172h90l198 -72l7 70h88l-4 -174h-91l-198 102 l-6 -98h-88zM276 283q0 -73 30.5 -94t94.5 -21h60q64 0 94.5 21t30.5 94v868q0 73 -30.5 94t-94.5 21h-60q-64 0 -94.5 -21t-30.5 -94v-868z" />
<glyph unicode="&#xd6;" d="M72 295v844q0 95 15.5 153t56 91.5t99 45t154.5 11.5h68q96 0 154.5 -11.5t99 -45t56.5 -91.5t16 -153v-844q0 -94 -16 -152t-56.5 -91.5t-99 -45.5t-154.5 -12h-68q-96 0 -154.5 12t-98.5 46t-56 92t-16 151zM244 1530v172h131v-172h-131zM276 283q0 -73 30.5 -94 t94.5 -21h60q64 0 94.5 21t30.5 94v868q0 73 -30.5 94t-94.5 21h-60q-64 0 -94.5 -21t-30.5 -94v-868zM489 1530v172h132v-172h-132z" />
<glyph unicode="&#xd7;" horiz-adv-x="665" d="M61 559l177 174l-172 174l96 94l170 -172l178 177l96 -95l-178 -178l172 -172l-94 -96l-174 172l-176 -174z" />
<glyph unicode="&#xd8;" d="M72 295v844q0 95 15.5 153t56 91.5t99 45t154.5 11.5h68q110 0 174 -17l35 93h110l-55 -144q62 -65 62 -233v-844q0 -94 -16 -152t-56.5 -91.5t-99 -45.5t-154.5 -12h-68q-109 0 -180 18l-33 -86h-108l55 137q-59 64 -59 232zM276 422l289 811q-26 33 -104 33h-60 q-64 0 -94.5 -21t-30.5 -94v-729zM305 190q25 -22 96 -22h60q64 0 94.5 21t30.5 94v700z" />
<glyph unicode="&#xd9;" d="M72 295v1139h204v-1145q0 -76 21.5 -98.5t79.5 -22.5h108q58 0 79.5 22.5t21.5 98.5v1145h205v-1139q0 -94 -16 -152t-56.5 -91.5t-99 -45.5t-154.5 -12h-68q-96 0 -154.5 12t-99 45.5t-56 91.5t-15.5 152zM252 1702h199l81 -189h-131z" />
<glyph unicode="&#xda;" d="M72 295v1139h204v-1145q0 -76 21.5 -98.5t79.5 -22.5h108q58 0 79.5 22.5t21.5 98.5v1145h205v-1139q0 -94 -16 -152t-56.5 -91.5t-99 -45.5t-154.5 -12h-68q-96 0 -154.5 12t-99 45.5t-56 91.5t-15.5 152zM348 1513l84 189h199l-152 -189h-131z" />
<glyph unicode="&#xdb;" d="M72 295v1139h204v-1145q0 -76 21.5 -98.5t79.5 -22.5h108q58 0 79.5 22.5t21.5 98.5v1145h205v-1139q0 -94 -16 -152t-56.5 -91.5t-99 -45.5t-154.5 -12h-68q-96 0 -154.5 12t-99 45.5t-56 91.5t-15.5 152zM205 1513l133 189h188l133 -189h-131l-96 107l-96 -107h-131z " />
<glyph unicode="&#xdc;" d="M72 295v1139h204v-1145q0 -76 21.5 -98.5t79.5 -22.5h108q58 0 79.5 22.5t21.5 98.5v1145h205v-1139q0 -94 -16 -152t-56.5 -91.5t-99 -45.5t-154.5 -12h-68q-96 0 -154.5 12t-99 45.5t-56 91.5t-15.5 152zM244 1530v172h131v-172h-131zM489 1530v172h132v-172h-132z" />
<glyph unicode="&#xdd;" horiz-adv-x="843" d="M14 1434h205l201 -633l203 633h206l-305 -873v-561h-205v561zM342 1513l84 189h199l-152 -189h-131z" />
<glyph unicode="&#xde;" horiz-adv-x="790" d="M76 0v1434h205v-242h172q91 0 146.5 -11.5t92.5 -43.5t51.5 -85t14.5 -139v-378q0 -87 -14 -140.5t-51.5 -85t-93 -42.5t-146.5 -11h-172v-256h-205zM281 428h172q50 0 75 21.5t25 82.5v383q0 61 -25 83t-75 22h-172v-592z" />
<glyph unicode="&#xdf;" horiz-adv-x="856" d="M10 1036v121h105v55q0 106 71 164t176 58h93q94 0 151 -11.5t96 -44t53.5 -87.5t14.5 -146v-150q0 -119 -34.5 -169t-123.5 -62q100 -8 141.5 -57.5t41.5 -176.5v-239q0 -67 -6 -114t-23 -80t-38 -51.5t-61 -29t-81 -13.5t-107 -3h-104v154h114q55 0 83 23.5t28 90.5v293 q0 65 -30.5 89t-84.5 24h-110v174h90q55 0 82.5 24t27.5 91v204q0 65 -26.5 84t-83.5 19h-51q-58 0 -84.5 -19t-26.5 -84v-1167h-194v1016z" />
<glyph unicode="&#xe0;" horiz-adv-x="774" d="M61 225v279q0 122 62 175.5t180 53.5h203v170q0 34 -6 54.5t-21 29t-28 10.5t-39 2h-37q-27 0 -39 -1.5t-27.5 -9.5t-21.5 -27t-6 -52v-96h-181v88q0 76 11 122t41.5 79.5t84.5 47t142 13.5h37q116 0 177.5 -27t84 -81t22.5 -154v-891q-218 -16 -335 -16h-62 q-118 0 -180 54t-62 177zM207 1425h199l81 -188h-131zM256 256q0 -90 74 -90h176v420h-176q-74 0 -74 -84v-246z" />
<glyph unicode="&#xe1;" horiz-adv-x="774" d="M61 225v279q0 122 62 175.5t180 53.5h203v170q0 34 -6 54.5t-21 29t-28 10.5t-39 2h-37q-27 0 -39 -1.5t-27.5 -9.5t-21.5 -27t-6 -52v-96h-181v88q0 76 11 122t41.5 79.5t84.5 47t142 13.5h37q116 0 177.5 -27t84 -81t22.5 -154v-891q-218 -16 -335 -16h-62 q-118 0 -180 54t-62 177zM256 256q0 -90 74 -90h176v420h-176q-74 0 -74 -84v-246zM309 1237l84 188h199l-152 -188h-131z" />
<glyph unicode="&#xe2;" horiz-adv-x="774" d="M61 225v279q0 122 62 175.5t180 53.5h203v170q0 34 -6 54.5t-21 29t-28 10.5t-39 2h-37q-27 0 -39 -1.5t-27.5 -9.5t-21.5 -27t-6 -52v-96h-181v88q0 76 11 122t41.5 79.5t84.5 47t142 13.5h37q116 0 177.5 -27t84 -81t22.5 -154v-891q-218 -16 -335 -16h-62 q-118 0 -180 54t-62 177zM166 1237l133 188h188l134 -188h-132l-96 106l-96 -106h-131zM256 256q0 -90 74 -90h176v420h-176q-74 0 -74 -84v-246z" />
<glyph unicode="&#xe3;" horiz-adv-x="774" d="M61 225v279q0 122 62 175.5t180 53.5h203v170q0 34 -6 54.5t-21 29t-28 10.5t-39 2h-37q-27 0 -39 -1.5t-27.5 -9.5t-21.5 -27t-6 -52v-96h-181v88q0 76 11 122t41.5 79.5t84.5 47t142 13.5h37q116 0 177.5 -27t84 -81t22.5 -154v-891q-218 -16 -335 -16h-62 q-118 0 -180 54t-62 177zM199 1251l4 172h90l199 -71l6 69h88l-4 -174h-90l-199 103l-6 -99h-88zM256 256q0 -90 74 -90h176v420h-176q-74 0 -74 -84v-246z" />
<glyph unicode="&#xe4;" horiz-adv-x="774" d="M61 225v279q0 122 62 175.5t180 53.5h203v170q0 34 -6 54.5t-21 29t-28 10.5t-39 2h-37q-27 0 -39 -1.5t-27.5 -9.5t-21.5 -27t-6 -52v-96h-181v88q0 76 11 122t41.5 79.5t84.5 47t142 13.5h37q116 0 177.5 -27t84 -81t22.5 -154v-891q-218 -16 -335 -16h-62 q-118 0 -180 54t-62 177zM201 1253v172h131v-172h-131zM256 256q0 -90 74 -90h176v420h-176q-74 0 -74 -84v-246zM446 1253v172h132v-172h-132z" />
<glyph unicode="&#xe5;" horiz-adv-x="774" d="M61 225v279q0 122 62 175.5t180 53.5h203v170q0 34 -6 54.5t-21 29t-28 10.5t-39 2h-37q-27 0 -39 -1.5t-27.5 -9.5t-21.5 -27t-6 -52v-96h-181v88q0 76 11 122t41.5 79.5t84.5 47t142 13.5h37q116 0 177.5 -27t84 -81t22.5 -154v-891q-218 -16 -335 -16h-62 q-118 0 -180 54t-62 177zM233 1348v28q0 71 26 98t103 27h39q79 0 104 -26.5t25 -98.5v-28q0 -72 -25 -98.5t-104 -26.5h-39q-77 0 -103 27t-26 98zM256 256q0 -90 74 -90h176v420h-176q-74 0 -74 -84v-246zM303 1343q0 -38 11 -47.5t53 -9.5h30q42 0 54 10t12 47v39 q0 37 -11 46.5t-55 9.5h-30q-43 0 -53.5 -9.5t-10.5 -46.5v-39z" />
<glyph unicode="&#xe6;" horiz-adv-x="1228" d="M61 225v258q0 123 62 176.5t180 53.5h213v194q-1 57 -23.5 75.5t-66.5 18.5h-80q-39 -3 -57.5 -23.5t-18.5 -76.5v-88h-170v88q0 74 10.5 120t40 79.5t82 47.5t136.5 15h57q71 0 116.5 -14t71.5 -53q27 39 74 53t119 14h61q116 0 179.5 -27t87.5 -81.5t24 -153.5v-422 l-448 -4v-223q0 -60 23.5 -80t72.5 -20h82q49 0 72.5 20t23.5 80v113h174v-109q0 -97 -23.5 -151.5t-85.5 -82t-176 -28.5h-67q-119 0 -176.5 15.5t-81.5 70.5q-5 -4 -24 -19.5t-32 -24t-34 -20t-44.5 -17t-49.5 -5.5h-62q-118 0 -180 54t-62 177zM256 256q0 -43 21 -66.5 t61 -23.5h49q47 0 129 61v332h-178q-38 0 -60 -29.5t-22 -72.5v-201zM711 633h254v274q0 59 -24 80t-73 21h-61q-47 0 -71.5 -18.5t-24.5 -71.5v-285z" />
<glyph unicode="&#xe7;" horiz-adv-x="727" d="M72 256v645q0 100 23.5 154t86 81t180.5 27h64q118 0 181 -27t86.5 -81t23.5 -154v-194h-195v192q0 60 -23.5 80t-72.5 20h-64q-49 0 -72.5 -20t-23.5 -80v-641q0 -59 23.5 -79.5t72.5 -20.5h64q49 0 72.5 20.5t23.5 79.5v213h195v-215q0 -143 -56.5 -201t-216.5 -61 l-49 -236h-147l86 236q-79 2 -130 17.5t-80 49t-40.5 79t-11.5 116.5z" />
<glyph unicode="&#xe8;" horiz-adv-x="784" d="M72 256v645q0 100 23.5 154t86 81t180.5 27h62q116 0 179.5 -27t87.5 -81.5t24 -153.5v-401l-449 -4v-238q0 -60 23.5 -80t72.5 -20h72q49 0 72.5 20t23.5 80v107h185v-109q0 -74 -12 -121t-45 -80t-89 -47t-145 -14h-62q-117 0 -180.5 27.5t-86.5 81.5t-23 153z M193 1425h198l82 -188h-131zM266 662h254v237q0 59 -23.5 79.5t-72.5 20.5h-62q-49 0 -72.5 -20.5t-23.5 -79.5v-237z" />
<glyph unicode="&#xe9;" horiz-adv-x="784" d="M72 256v645q0 100 23.5 154t86 81t180.5 27h62q116 0 179.5 -27t87.5 -81.5t24 -153.5v-401l-449 -4v-238q0 -60 23.5 -80t72.5 -20h72q49 0 72.5 20t23.5 80v107h185v-109q0 -74 -12 -121t-45 -80t-89 -47t-145 -14h-62q-117 0 -180.5 27.5t-86.5 81.5t-23 153zM266 662 h254v237q0 59 -23.5 79.5t-72.5 20.5h-62q-49 0 -72.5 -20.5t-23.5 -79.5v-237zM324 1237l84 188h198l-151 -188h-131z" />
<glyph unicode="&#xea;" horiz-adv-x="784" d="M72 256v645q0 100 23.5 154t86 81t180.5 27h62q116 0 179.5 -27t87.5 -81.5t24 -153.5v-401l-449 -4v-238q0 -60 23.5 -80t72.5 -20h72q49 0 72.5 20t23.5 80v107h185v-109q0 -74 -12 -121t-45 -80t-89 -47t-145 -14h-62q-117 0 -180.5 27.5t-86.5 81.5t-23 153z M166 1237l133 188h188l134 -188h-132l-96 106l-96 -106h-131zM266 662h254v237q0 59 -23.5 79.5t-72.5 20.5h-62q-49 0 -72.5 -20.5t-23.5 -79.5v-237z" />
<glyph unicode="&#xeb;" horiz-adv-x="784" d="M72 256v645q0 100 23.5 154t86 81t180.5 27h62q116 0 179.5 -27t87.5 -81.5t24 -153.5v-401l-449 -4v-238q0 -60 23.5 -80t72.5 -20h72q49 0 72.5 20t23.5 80v107h185v-109q0 -74 -12 -121t-45 -80t-89 -47t-145 -14h-62q-117 0 -180.5 27.5t-86.5 81.5t-23 153z M205 1253v172h131v-172h-131zM266 662h254v237q0 59 -23.5 79.5t-72.5 20.5h-62q-49 0 -72.5 -20.5t-23.5 -79.5v-237zM451 1253v172h131v-172h-131z" />
<glyph unicode="&#xec;" horiz-adv-x="344" d="M-39 1425h199l82 -188h-131zM76 0v1157h194v-1157h-194z" />
<glyph unicode="&#xed;" horiz-adv-x="344" d="M76 0v1157h194v-1157h-194zM102 1237l84 188h199l-152 -188h-131z" />
<glyph unicode="&#xee;" horiz-adv-x="344" d="M-53 1237l133 188h188l133 -188h-131l-96 106l-96 -106h-131zM76 0v1157h194v-1157h-194z" />
<glyph unicode="&#xef;" horiz-adv-x="344" d="M-14 1253v172h131v-172h-131zM76 0v1157h194v-1157h-194zM231 1253v172h131v-172h-131z" />
<glyph unicode="&#xf0;" horiz-adv-x="792" d="M72 250v684q0 123 61.5 176t179.5 53h66q20 0 149 -6v10q0 98 -16 129l-135 -51l-35 78l131 49q-29 37 -104 109l129 45q10 -7 30 -22l32 -24t28 -22.5t28 -25.5l121 45l35 -78l-102 -39q53 -75 53 -182v-928q0 -145 -60 -200.5t-231 -55.5h-70q-89 0 -145 13t-88.5 45 t-44.5 78t-12 120zM266 256q0 -59 23.5 -79.5t72.5 -20.5h70q49 0 72.5 20.5t23.5 79.5v737h-180q-39 0 -60.5 -24t-21.5 -66v-647z" />
<glyph unicode="&#xf1;" horiz-adv-x="796" d="M74 0v1157q194 6 344 6h63q118 0 180 -53.5t62 -175.5v-934h-195v903q0 42 -21.5 66t-60.5 24h-178v-993h-194zM201 1251l4 172h90l199 -71l6 69h88l-4 -174h-90l-199 103l-6 -99h-88z" />
<glyph unicode="&#xf2;" horiz-adv-x="792" d="M72 256v645q0 100 23.5 154t86 81t180.5 27h70q116 0 179.5 -27t87.5 -81.5t24 -153.5v-645q0 -146 -60.5 -204t-230.5 -58h-70q-117 0 -180.5 27.5t-86.5 81.5t-23 153zM217 1425h199l82 -188h-131zM266 258q0 -59 23.5 -79.5t72.5 -20.5h70q49 0 72.5 20.5t23.5 79.5 l2 643q0 60 -23.5 80t-72.5 20h-69q-50 0 -73.5 -20t-23.5 -80z" />
<glyph unicode="&#xf3;" horiz-adv-x="792" d="M72 256v645q0 100 23.5 154t86 81t180.5 27h70q116 0 179.5 -27t87.5 -81.5t24 -153.5v-645q0 -146 -60.5 -204t-230.5 -58h-70q-117 0 -180.5 27.5t-86.5 81.5t-23 153zM266 258q0 -59 23.5 -79.5t72.5 -20.5h70q49 0 72.5 20.5t23.5 79.5l2 643q0 60 -23.5 80t-72.5 20 h-69q-50 0 -73.5 -20t-23.5 -80zM319 1237l84 188h199l-151 -188h-132z" />
<glyph unicode="&#xf4;" horiz-adv-x="792" d="M72 256v645q0 100 23.5 154t86 81t180.5 27h70q116 0 179.5 -27t87.5 -81.5t24 -153.5v-645q0 -146 -60.5 -204t-230.5 -58h-70q-117 0 -180.5 27.5t-86.5 81.5t-23 153zM170 1237l133 188h189l133 -188h-131l-97 106l-96 -106h-131zM266 258q0 -59 23.5 -79.5 t72.5 -20.5h70q49 0 72.5 20.5t23.5 79.5l2 643q0 60 -23.5 80t-72.5 20h-69q-50 0 -73.5 -20t-23.5 -80z" />
<glyph unicode="&#xf5;" horiz-adv-x="792" d="M72 256v645q0 100 23.5 154t86 81t180.5 27h70q116 0 179.5 -27t87.5 -81.5t24 -153.5v-645q0 -146 -60.5 -204t-230.5 -58h-70q-117 0 -180.5 27.5t-86.5 81.5t-23 153zM205 1251l4 172h90l199 -71l6 69h88l-4 -174h-90l-199 103l-6 -99h-88zM266 258q0 -59 23.5 -79.5 t72.5 -20.5h70q49 0 72.5 20.5t23.5 79.5l2 643q0 60 -23.5 80t-72.5 20h-69q-50 0 -73.5 -20t-23.5 -80z" />
<glyph unicode="&#xf6;" horiz-adv-x="792" d="M72 256v645q0 100 23.5 154t86 81t180.5 27h70q116 0 179.5 -27t87.5 -81.5t24 -153.5v-645q0 -146 -60.5 -204t-230.5 -58h-70q-117 0 -180.5 27.5t-86.5 81.5t-23 153zM209 1253v172h131v-172h-131zM266 258q0 -59 23.5 -79.5t72.5 -20.5h70q49 0 72.5 20.5t23.5 79.5 l2 643q0 60 -23.5 80t-72.5 20h-69q-50 0 -73.5 -20t-23.5 -80zM455 1253v172h131v-172h-131z" />
<glyph unicode="&#xf7;" horiz-adv-x="677" d="M43 668v135h602v-135h-602zM281 401v162h131v-162h-131zM281 905v162h131v-162h-131z" />
<glyph unicode="&#xf8;" horiz-adv-x="792" d="M72 -66l55 121q-55 55 -55 201v645q0 100 23.5 154t86 81t180.5 27h70q67 0 125 -10l37 92h102l-55 -123q45 -30 63.5 -82.5t18.5 -138.5v-645q0 -146 -60.5 -204t-230.5 -58h-70q-91 0 -153 16l-37 -76h-100zM266 393l221 600q-19 8 -53 8h-69q-50 0 -73.5 -20 t-23.5 -80zM285 182q19 -24 77 -24h70q49 0 72.5 20.5t23.5 79.5l2 584z" />
<glyph unicode="&#xf9;" horiz-adv-x="792" d="M70 225v932h194v-901q0 -43 21 -66.5t61 -23.5h178v991h195v-1157q-266 -6 -342 -6h-66q-118 0 -179.5 54t-61.5 177zM217 1425h199l82 -188h-131z" />
<glyph unicode="&#xfa;" horiz-adv-x="792" d="M70 225v932h194v-901q0 -43 21 -66.5t61 -23.5h178v991h195v-1157q-266 -6 -342 -6h-66q-118 0 -179.5 54t-61.5 177zM307 1237l84 188h199l-152 -188h-131z" />
<glyph unicode="&#xfb;" horiz-adv-x="792" d="M70 225v932h194v-901q0 -43 21 -66.5t61 -23.5h178v991h195v-1157q-266 -6 -342 -6h-66q-118 0 -179.5 54t-61.5 177zM168 1237l133 188h188l134 -188h-131l-97 106l-96 -106h-131z" />
<glyph unicode="&#xfc;" horiz-adv-x="792" d="M70 225v932h194v-901q0 -43 21 -66.5t61 -23.5h178v991h195v-1157q-266 -6 -342 -6h-66q-118 0 -179.5 54t-61.5 177zM209 1253v172h131v-172h-131zM455 1253v172h131v-172h-131z" />
<glyph unicode="&#xfd;" horiz-adv-x="763" d="M-6 1157h211l162 -964h16l172 964h195l-258 -1415h-187l49 268h-141zM303 1237l84 188h199l-152 -188h-131z" />
<glyph unicode="&#xfe;" horiz-adv-x="796" d="M74 -246v1682h194v-279h236q113 0 167 -58.5t54 -185.5v-647q0 -130 -55.5 -201t-165.5 -71h-64l-172 6v-246h-194zM268 166h181q39 0 60 23.5t21 66.5v647q0 42 -21 66t-60 24h-181v-827z" />
<glyph unicode="&#xff;" horiz-adv-x="763" d="M-6 1157h211l162 -964h16l172 964h195l-258 -1415h-187l49 268h-141zM186 1253v172h131v-172h-131zM432 1253v172h131v-172h-131z" />
<glyph unicode="&#x152;" horiz-adv-x="1196" d="M72 322v792q0 184 70 252t255 68h762v-174h-391v-439h360v-174h-360v-473h391v-174h-762q-184 0 -254.5 69t-70.5 253zM279 289q0 -74 29.5 -99.5t88.5 -25.5h166v1106h-166q-59 0 -88.5 -24.5t-29.5 -98.5v-858z" />
<glyph unicode="&#x153;" horiz-adv-x="1241" d="M72 256v645q0 100 23.5 154t86 81t180.5 27h70q128 0 193 -33q62 33 194 33h62q116 0 179 -27t87 -81.5t24 -153.5v-401l-448 -4v-238q0 -60 23.5 -80t72.5 -20h72q49 0 72.5 20t23.5 80v107h184v-109q0 -99 -23 -153t-86.5 -81.5t-180.5 -27.5h-62q-136 0 -194 31 q-61 -31 -193 -31h-70q-117 0 -180.5 27.5t-86.5 81.5t-23 153zM266 258q0 -59 23.5 -79.5t72.5 -20.5h70q49 0 72.5 20.5t23.5 79.5v643v31q-6 40 -29 54.5t-65 14.5h-69q-50 0 -73.5 -20t-23.5 -80zM723 662h254v237q0 59 -23.5 79.5t-72.5 20.5h-62q-47 0 -71 -18 t-25 -70v-10v-239z" />
<glyph unicode="&#x178;" horiz-adv-x="843" d="M14 1434h205l201 -633l203 633h206l-305 -873v-561h-205v561zM233 1530v172h132v-172h-132zM479 1530v172h131v-172h-131z" />
<glyph unicode="&#x2c6;" horiz-adv-x="1024" d="M285 1237l133 188h188l133 -188h-131l-96 106l-96 -106h-131z" />
<glyph unicode="&#x2dc;" horiz-adv-x="1024" d="M311 1251l4 172h91l198 -71l6 69h88l-4 -174h-90l-198 103l-7 -99h-88z" />
<glyph unicode="&#x2000;" horiz-adv-x="880" />
<glyph unicode="&#x2001;" horiz-adv-x="1761" />
<glyph unicode="&#x2002;" horiz-adv-x="880" />
<glyph unicode="&#x2003;" horiz-adv-x="1761" />
<glyph unicode="&#x2004;" horiz-adv-x="587" />
<glyph unicode="&#x2005;" horiz-adv-x="440" />
<glyph unicode="&#x2006;" horiz-adv-x="293" />
<glyph unicode="&#x2007;" horiz-adv-x="293" />
<glyph unicode="&#x2008;" horiz-adv-x="220" />
<glyph unicode="&#x2009;" horiz-adv-x="352" />
<glyph unicode="&#x200a;" horiz-adv-x="97" />
<glyph unicode="&#x2010;" horiz-adv-x="585" d="M43 535v159h500v-159h-500z" />
<glyph unicode="&#x2011;" horiz-adv-x="585" d="M43 535v159h500v-159h-500z" />
<glyph unicode="&#x2012;" horiz-adv-x="585" d="M43 535v159h500v-159h-500z" />
<glyph unicode="&#x2013;" horiz-adv-x="806" d="M31 545v139h745v-139h-745z" />
<glyph unicode="&#x2014;" horiz-adv-x="1155" d="M31 545v139h1093v-139h-1093z" />
<glyph unicode="&#x2018;" horiz-adv-x="333" d="M76 956v199q0 89 24.5 144t87.5 135l60 -43q-41 -67 -51.5 -99t-10.5 -86h68v-250h-178z" />
<glyph unicode="&#x2019;" horiz-adv-x="333" d="M80 1186v250h178v-199q0 -89 -24.5 -143.5t-88.5 -135.5l-59 43q41 66 51 98t10 87h-67z" />
<glyph unicode="&#x201a;" horiz-adv-x="333" d="M80 0v250h178v-199q0 -88 -24.5 -142.5t-88.5 -135.5l-59 43q41 66 51 97.5t10 86.5h-67z" />
<glyph unicode="&#x201c;" horiz-adv-x="595" d="M76 956v199q0 89 24.5 144t87.5 135l60 -43q-41 -67 -51.5 -99t-10.5 -86h68v-250h-178zM336 956v199q0 89 24.5 143.5t88.5 135.5l59 -43q-41 -67 -51.5 -99t-10.5 -86h68v-250h-178z" />
<glyph unicode="&#x201d;" horiz-adv-x="595" d="M80 1186v250h178v-199q0 -89 -24.5 -143.5t-88.5 -135.5l-59 43q41 66 51 98t10 87h-67zM340 1186v250h178v-199q0 -89 -24.5 -144t-87.5 -135l-60 43q41 67 51.5 99t10.5 86h-68z" />
<glyph unicode="&#x201e;" horiz-adv-x="595" d="M80 0v250h178v-199q0 -88 -24.5 -142.5t-88.5 -135.5l-59 43q41 66 51 97.5t10 86.5h-67zM340 0v250h178v-199q0 -89 -24 -143.5t-88 -134.5l-60 43q41 67 51.5 98.5t10.5 85.5h-68z" />
<glyph unicode="&#x2022;" horiz-adv-x="540" d="M96 649v152q0 50 4 75.5t19.5 46t46 27t84.5 6.5h45q53 0 82 -6.5t44.5 -27.5t19 -46t3.5 -75v-152q0 -49 -3.5 -74t-19 -45.5t-44.5 -27t-82 -6.5h-45q-54 0 -84.5 6.5t-46 27t-19.5 45.5t-4 74z" />
<glyph unicode="&#x2026;" horiz-adv-x="999" d="M78 0v250h178v-250h-178zM412 0v250h176v-250h-176zM743 0v250h179v-250h-179z" />
<glyph unicode="&#x202f;" horiz-adv-x="352" />
<glyph unicode="&#x2039;" horiz-adv-x="385" d="M23 573v23l194 348h131l-160 -348v-23l160 -346h-131z" />
<glyph unicode="&#x203a;" horiz-adv-x="385" d="M35 227l160 346v23l-160 348h131l194 -348v-23l-194 -346h-131z" />
<glyph unicode="&#x205f;" horiz-adv-x="440" />
<glyph unicode="&#x20ac;" horiz-adv-x="858" d="M23 575v119h81v86h-81v119h81v240q0 95 16 153t56.5 91.5t99 45t154.5 11.5h57q96 0 154.5 -11.5t99 -45t56.5 -91.5t16 -153v-117h-192v127q0 74 -30 99.5t-91 25.5h-70q-61 0 -91 -25.5t-30 -99.5v-250h408v-119h-408v-86h408v-119h-408v-290q0 -74 30 -99.5t91 -25.5 h74q62 0 91.5 25.5t29.5 99.5v178h192v-168q0 -94 -15.5 -151.5t-55.5 -91.5t-98.5 -46t-155.5 -12h-62q-96 0 -154.5 12t-99 45.5t-56.5 91.5t-16 152v280h-81z" />
<glyph unicode="&#x2122;" horiz-adv-x="995" d="M25 1343v91h370v-91h-133v-626h-104v626h-133zM436 717v717h160l84 -502h6l84 502h160v-717h-101l7 528h-5l-102 -528h-92l-100 528h-5l5 -528h-101z" />
<glyph unicode="&#x25fc;" horiz-adv-x="1157" d="M0 0v1157h1157v-1157h-1157z" />
</font>
</defs>
</svg>
